<svg xmlns="http://www.w3.org/2000/svg" width="184.849" height="32.003" viewBox="0 0 184.849 32.003">
  <g id="Component_10_1" data-name="Component 10 – 1" transform="translate(0 0)">
    <g id="Group_9403" data-name="Group 9403" transform="translate(-1428.001 -664)">
      <path id="Path_676" data-name="Path 676" d="M17.3-1.5h8.534v-32H17.3Z" transform="translate(1422.015 697.5)" fill="#eec781"/>
      <path id="Path_678" data-name="Path 678" d="M17.3-24.966h8.534V-33.5H17.3Z" transform="translate(1410.699 697.5)" fill="#eec781"/>
      <path id="Path_677" data-name="Path 677" d="M48.154-15.721V-33.5h8.534v9.009A8.652,8.652,0,0,1,48.154-15.721Z" transform="translate(1402.437 697.5)" fill="#eec781"/>
    </g>
    <path id="Path_4694" data-name="Path 4694" d="M-93.973-13.077V-31.813h-6.752V-36.95h18.834v5.137h-6.719v18.737Zm17.735,0H-81.31v-17.7h4.846v2.294a5.367,5.367,0,0,1,4.813-2.778,6.477,6.477,0,0,1,2.2.42L-69.874-26a6.654,6.654,0,0,0-2.229-.388,3.751,3.751,0,0,0-3.037,1.308,5.988,5.988,0,0,0-1.1,3.925Zm21-15.829V-30.78h4.781v17.7h-4.781v-1.809a7.439,7.439,0,0,1-5.46,2.261,8.185,8.185,0,0,1-6.267-2.681,9.571,9.571,0,0,1-2.455-6.719,9.256,9.256,0,0,1,2.487-6.59A8.244,8.244,0,0,1-60.7-31.232,7.337,7.337,0,0,1-55.239-28.906Zm-9.11,6.946a4.824,4.824,0,0,0,1.26,3.36,4.38,4.38,0,0,0,3.263,1.357,4.265,4.265,0,0,0,3.263-1.389,4.725,4.725,0,0,0,1.325-3.327,4.613,4.613,0,0,0-1.325-3.3,4.38,4.38,0,0,0-3.263-1.357,4.38,4.38,0,0,0-3.263,1.357A4.667,4.667,0,0,0-64.35-21.96Zm25.683,9.272a9.31,9.31,0,0,1-6.784-2.584,9.056,9.056,0,0,1-2.617-6.687,8.824,8.824,0,0,1,2.649-6.655,9.33,9.33,0,0,1,6.849-2.617,9.7,9.7,0,0,1,5.023,1.325,7.989,7.989,0,0,1,3.311,3.715l-4.038,2.164a4.736,4.736,0,0,0-4.2-2.52,4.434,4.434,0,0,0-3.263,1.325,4.423,4.423,0,0,0-1.292,3.263,4.567,4.567,0,0,0,1.26,3.327,4.383,4.383,0,0,0,3.231,1.292,4.687,4.687,0,0,0,2.471-.695,4.366,4.366,0,0,0,1.7-1.793l4.1,2.423a8.584,8.584,0,0,1-3.408,3.44A9.922,9.922,0,0,1-38.667-12.689Zm27.718-9.659a19.157,19.157,0,0,1-.162,2.132H-24.13q.9,3.327,4.813,3.327A9.723,9.723,0,0,0-13.792-18.6l2,3.457a12.441,12.441,0,0,1-7.753,2.455q-4.684,0-7.2-2.681a9.329,9.329,0,0,1-2.487-6.59,9.1,9.1,0,0,1,2.584-6.623A8.945,8.945,0,0,1-19.9-31.232a9.035,9.035,0,0,1,6.429,2.391A8.524,8.524,0,0,1-10.949-22.348Zm-6.332-3.909a4,4,0,0,0-2.617-.872,4.329,4.329,0,0,0-2.7.872,4.372,4.372,0,0,0-1.567,2.423h8.335A4.166,4.166,0,0,0-17.281-26.257ZM-8.042-36.95H1.1q4.361,0,6.493,2.326a8.05,8.05,0,0,1,2.164,5.75A7.66,7.66,0,0,1,7.529-23.22Q5.3-20.991.713-20.991H-2.711v7.915h-5.33ZM-2.711-25.8H.907a3.4,3.4,0,0,0,2.487-.888,3.015,3.015,0,0,0,.9-2.245,3.033,3.033,0,0,0-.872-2.213,3.07,3.07,0,0,0-2.294-.888H-2.711Zm31.562,3.457a19.156,19.156,0,0,1-.162,2.132H15.67q.9,3.327,4.813,3.327A9.723,9.723,0,0,0,26.008-18.6l2,3.457a12.441,12.441,0,0,1-7.753,2.455q-4.684,0-7.2-2.681a9.329,9.329,0,0,1-2.487-6.59,9.1,9.1,0,0,1,2.584-6.623A8.945,8.945,0,0,1,19.9-31.232a9.035,9.035,0,0,1,6.429,2.391A8.524,8.524,0,0,1,28.851-22.348Zm-6.332-3.909a4,4,0,0,0-2.617-.872,4.329,4.329,0,0,0-2.7.872,4.372,4.372,0,0,0-1.567,2.423h8.335A4.166,4.166,0,0,0,22.519-26.257Z" transform="translate(155.999 44.627)" fill="#fff"/>
  </g>
</svg>
