<svg xmlns="http://www.w3.org/2000/svg" width="36" height="25.2" viewBox="0 0 36 25.2">
  <path id="Icon_awesome-money-check" data-name="Icon awesome-money-check" d="M0,25.65a1.8,1.8,0,0,0,1.8,1.8H34.2a1.8,1.8,0,0,0,1.8-1.8v-18H0Zm25.2-11.7a.9.9,0,0,1,.9-.9h5.4a.9.9,0,0,1,.9.9v1.8a.9.9,0,0,1-.9.9H26.1a.9.9,0,0,1-.9-.9Zm0,6.75a.45.45,0,0,1,.45-.45h6.3a.45.45,0,0,1,.45.45v.9a.45.45,0,0,1-.45.45h-6.3a.45.45,0,0,1-.45-.45ZM3.6,15.3a.45.45,0,0,1,.45-.45h17.1a.45.45,0,0,1,.45.45v.9a.45.45,0,0,1-.45.45H4.05a.45.45,0,0,1-.45-.45Zm0,5.4a.45.45,0,0,1,.45-.45h9.9a.45.45,0,0,1,.45.45v.9a.45.45,0,0,1-.45.45H4.05a.45.45,0,0,1-.45-.45ZM35.1,2.25H.9a.9.9,0,0,0-.9.9v2.7H36V3.15A.9.9,0,0,0,35.1,2.25Z" transform="translate(0 -2.25)" fill="#090a0d"/>
</svg>
