<svg xmlns="http://www.w3.org/2000/svg" width="36" height="30.857" viewBox="0 0 36 30.857">
  <path id="Icon_ionic-ios-speedometer" data-name="Icon ionic-ios-speedometer" d="M20.25,4.5A17.994,17.994,0,0,0,6.774,34.425c.088.1.169.193.257.281a2.024,2.024,0,0,0,2.981-.008,13.912,13.912,0,0,1,20.475,0,2.024,2.024,0,0,0,2.981.008l.257-.281A17.994,17.994,0,0,0,20.25,4.5ZM19.125,8.188a1.125,1.125,0,0,1,2.25,0v2.893a1.125,1.125,0,0,1-2.25,0ZM8.839,23.617H5.946a1.125,1.125,0,1,1,0-2.25H8.839a1.125,1.125,0,0,1,0,2.25Zm4.138-8.4h0a1.135,1.135,0,0,1-1.591,0L9.338,13.179a1.135,1.135,0,0,1,0-1.591h0a1.135,1.135,0,0,1,1.591,0l2.049,2.049A1.125,1.125,0,0,1,12.978,15.22Zm12.905,2.772-3.817,6.067a2.491,2.491,0,0,1-.562.563,2.419,2.419,0,1,1-2.812-3.937l6.067-3.817a.822.822,0,0,1,.94,0A.808.808,0,0,1,25.883,17.992Zm3.23-2.772a1.135,1.135,0,0,1-1.591,0h0a1.135,1.135,0,0,1,0-1.591l2.049-2.049a1.135,1.135,0,0,1,1.591,0h0a1.135,1.135,0,0,1,0,1.591Zm5.44,8.4H31.661a1.125,1.125,0,0,1,0-2.25h2.893a1.125,1.125,0,0,1,0,2.25Z" transform="translate(-2.25 -4.5)" fill="#090a0d"/>
</svg>
